# xmcd
#
# Track frame offsets:
#	150
#	21275
#	39512
#	55807
#	78970
#	96290
#	120620
#	140447
#	159940
#	179165
#	193170
#
# Disc length: 3072 seconds
#
# Revision: 0
# Processed by: cddbd v1.5.2PL0 Copyright (c) Steve Scherf et al.
# Submitted via: EasyCDDAExtractor 16.0.1.1
#
DISCID=920bfe0b
DTITLE=Mary Black - Shine
DYEAR=1997
DGENRE=Country
TTITLE0=Shine
TTITLE1=One And Only
TTITLE2=Almost Gone
TTITLE3=Nobody Lives Without Love
TTITLE4=I Misunderstood
TTITLE5=Trespass Shoes
TTITLE6=I Will Be There
TTITLE7=What Does It Matter
TTITLE8=Beautiful
TTITLE9=Late Night Radio
TTITLE10=By The Hour
EXTD=
EXTT0=
EXTT1=
EXTT2=
EXTT3=
EXTT4=
EXTT5=
EXTT6=
EXTT7=
EXTT8=
EXTT9=
EXTT10=
PLAYORDER=
